<svg xmlns="http://www.w3.org/2000/svg" width="24" height="24" viewBox="0 0 6.35 6.3500004">
  <path d="M1.57458,0.52919C1.28739,0.5362 1.05825,0.77107 1.05833,1.05835v4.23333c0,0.29225 0.23692,0.52917 0.52917,0.52917h3.175c0.29225,0 0.52917,-0.23692 0.52917,-0.52917L5.29167,1.05835c0,-0.29225 -0.23692,-0.52917 -0.52917,-0.52917h-3.175c-0.00431,-0.00005 -0.00861,-0.00005 -0.01292,0zM1.5875,1.05835L2.11667,1.05835L2.11667,3.17502L2.77813,2.57971 3.43958,3.17502L3.43958,1.05835L4.7625,1.05835v4.23333h-3.175zM2.64583,3.43958 L1.85208,4.23333 2.64583,5.02708L2.64583,4.49792h1.05833v0.52917l0.79375,-0.79375 -0.79375,-0.79375L3.70417,3.96875L2.64583,3.96875Z" fill="#000000"/>
</svg>